<?xml version="1.0" encoding="UTF-8" standalone="no"?>
<svg
   xmlns:dc="http://purl.org/dc/elements/1.1/"
   xmlns:cc="http://creativecommons.org/ns#"
   xmlns:rdf="http://www.w3.org/1999/02/22-rdf-syntax-ns#"
   xmlns:svg="http://www.w3.org/2000/svg"
   xmlns="http://www.w3.org/2000/svg"
   width="109.33373mm"
   height="79.968208mm"
   viewBox="0 0 109.33373 79.968208"
   version="1.1"
   id="svg8">
  <defs
     id="defs2">
    <style
       id="style1338"
       type="text/css">
   
    .fil0 {fill:#000000}
   
  </style>
  </defs>
  <metadata
     id="metadata5">
    <rdf:RDF>
      <cc:Work
         rdf:about="">
        <dc:format>image/svg+xml</dc:format>
        <dc:type
           rdf:resource="http://purl.org/dc/dcmitype/StillImage" />
        <dc:title></dc:title>
      </cc:Work>
    </rdf:RDF>
  </metadata>
  <g
     id="layer1"
     transform="translate(144.70572,-131.3492)">
    <g
       style="fill:#ffffff"
       id="g1440"
       transform="matrix(0.26458333,0,0,0.26458333,-82.936126,169.86004)">
      <path
         style="fill:#ffffff"
         id="path1429"
         d="M 86,5 H 14 C 9,5 5,9 5,14 v 72 c 0,5 4,9 9,9 h 72 c 5,0 9,-4 9,-9 V 14 C 95,9 91,5 86,5 Z m 5.2,7.7 c -0.1,0 -0.1,0.1 -0.2,0.1 l -1,-1 -3,-3.1 c 2,0.4 3.7,1.9 4.2,4 z M 83.8,8.6 h 1.8 l 0.7,0.7 3.2,3.2 1,1 -1,1 -3.2,3.2 -1,1 -0.6,0.6 0.5,-0.8 c -0.3,-0.2 -0.8,-0.2 -1.1,0.1 l -1,-1 -3.2,-3.2 -1,-1 1,-1 3.2,-3.2 z m 0.2,78.6 -1,-1 -3.2,-3.2 -1,-1 1,-1 3.2,-3.2 1,-1 c 0.4,0.4 0.9,0.4 1.3,0 l 1,1 3.2,3.2 1,1 -1,1 -3.2,3.2 -1,1 -0.6,0.6 0.5,-0.8 C 84.8,86.9 84.3,86.9 84,87.2 Z m -7,-5.7 -1,-1 -3.2,-3.2 -1,-1 1,-1 3.2,-3.2 1,-1 c 0.4,0.4 0.9,0.4 1.3,0 l 1,1 3.2,3.2 1,1 -1,1 -3.2,3.2 -1,1 -0.6,0.6 0.5,-0.8 C 77.8,81.2 77.3,81.2 77,81.5 Z m -7,5.7 -1,-1 -4,-4.1 1,-1 3.2,-3.2 1,-1 c 0.4,0.4 0.9,0.4 1.3,0 l 1,1 3.2,3.2 1,1 -1,1 -3.2,3.2 -1,1 -0.6,0.6 0.5,-0.8 C 70.8,86.9 70.3,86.9 70,87.2 Z m -7,-5.7 -1,-1 -3.2,-3.2 -1,-1 1,-1 3.2,-3.2 1,-1 c 0.4,0.4 0.9,0.4 1.3,0 l 1,1 3.2,3.2 1,1 -1,1 -3.2,3.2 -1,1 -0.6,0.6 0.5,-0.8 C 63.8,81.2 63.3,81.2 63,81.5 Z m -7,5.7 -1,-1 -3.2,-3.2 -1,-1 1,-1 3.2,-3.2 1,-1 c 0.4,0.4 0.9,0.4 1.3,0 l 1,1 3.2,3.2 1,1 -1,1 -3.2,3.2 -1,1 -0.6,0.6 0.5,-0.8 C 56.8,86.9 56.3,86.9 56,87.2 Z m -7,-5.7 -1,-1 -3.2,-3.2 -1,-1 1,-1 3.2,-3.2 1,-1 c 0.4,0.4 0.9,0.4 1.3,0 l 1,1 3.2,3.2 1,1 -1,1 -3.2,3.2 -1,1 -0.6,0.6 0.5,-0.8 C 49.8,81.2 49.3,81.2 49,81.5 Z m -7,5.7 -1,-1 -3.2,-3.2 -1,-1 1,-1 3.2,-3.2 1,-1 c 0.4,0.4 0.9,0.4 1.3,0 l 1,1 3.2,3.2 1,1 -1,1 -3.2,3.2 -1,1 -0.6,0.6 0.5,-0.8 C 42.8,86.9 42.3,86.9 42,87.2 Z m -7,-5.7 -1,-1 -3.2,-3.2 -1,-1 1,-1 3.2,-3.2 1,-1 c 0.4,0.4 0.9,0.4 1.3,0 l 1,1 3.2,3.2 1,1 -1,1 -3.2,3.2 -1,1 -0.6,0.6 0.5,-0.8 C 35.8,81.2 35.3,81.2 35,81.5 Z m -7,5.7 -1,-1 -3.2,-3.2 -1,-1 1,-1 3.2,-3.2 1,-1 c 0.4,0.4 0.9,0.4 1.3,0 l 1,1 3.2,3.2 1,1 -1,1 -3.2,3.2 -1,1 -0.6,0.6 0.5,-0.8 C 28.8,86.9 28.3,86.9 28,87.2 Z m -7,-5.7 -1,-1 -3.2,-3.2 -1,-1 1,-1 3.2,-3.2 1,-1 c 0.4,0.4 0.9,0.4 1.3,0 l 1,1 3.2,3.2 1,1 -1,1 -3.2,3.2 -1,1 -0.6,0.6 0.5,-0.8 C 21.8,81.2 21.3,81.2 21,81.5 Z m -7,5.7 -1,-1 -3.2,-3.2 -1,-1 1,-1 3.2,-3.2 1,-1 c 0.4,0.4 0.9,0.4 1.3,0 l 1,1 3.2,3.2 1,1 -1,1 -3.2,3.2 -1,1 -0.6,0.6 0.5,-0.8 C 14.8,86.9 14.3,86.9 14,87.2 Z M 77,70 l -1,-1 -3.2,-3.2 -1,-1 1,-1 3.2,-3.2 1,-1 c 0.4,0.4 0.9,0.4 1.3,0 l 1,1 3.2,3.2 1,1 -1,1 -3.2,3.2 -1,1 -0.6,0.6 0.5,-0.8 C 77.8,69.7 77.3,69.7 77,70 Z m -7,5.8 -1,-1 -3.2,-3.2 -1,-1 1,-1 3.2,-3.2 1,-1 c 0.4,0.4 0.9,0.4 1.3,0 l 1,1 3.2,3.2 1,1 -1,1 -3.2,3.2 -1,1 -0.6,0.6 0.5,-0.8 C 70.8,75.4 70.3,75.5 70,75.8 Z m -7,-5.8 -1,-1 -3.2,-3.2 -1,-1 1,-1 3.2,-3.2 1,-1 c 0.4,0.4 0.9,0.4 1.3,0 l 1,1 3.2,3.2 1,1 -1,1 -3.2,3.2 -1,1 -0.6,0.6 0.5,-0.8 C 63.8,69.7 63.3,69.7 63,70 Z m -7,5.8 -1,-1 -3.2,-3.2 -1,-1 1,-1 3.2,-3.2 1,-1 c 0.4,0.4 0.9,0.4 1.3,0 l 1,1 3.2,3.2 1,1 -1,1 -4.8,4.8 0.5,-0.8 C 56.8,75.4 56.3,75.5 56,75.8 Z m -7,-5.8 -1,-1 -3.2,-3.2 -1,-1 1,-1 3.2,-3.2 1,-1 c 0.4,0.4 0.9,0.4 1.3,0 l 1,1 3.2,3.2 1,1 -1,1 -3.2,3.2 -1,1 -0.6,0.6 0.5,-0.8 C 49.8,69.7 49.3,69.7 49,70 Z m -7,5.8 -1,-1 -3.2,-3.2 -1,-1 1,-1 3.2,-3.2 1,-1 c 0.4,0.4 0.9,0.4 1.3,0 l 1,1 3.2,3.2 1,1 -1,1 -3.2,3.2 -1,1 -0.6,0.6 0.5,-0.8 C 42.8,75.4 42.3,75.5 42,75.8 Z m -7,-5.8 -1,-1 -3.2,-3.2 -1,-1 1,-1 3.2,-3.2 1,-1 c 0.4,0.4 0.9,0.4 1.3,0 l 1,1 3.2,3.2 1,1 -1,1 -3.2,3.2 -1,1 -0.6,0.6 0.5,-0.8 C 35.8,69.7 35.3,69.7 35,70 Z m -7,5.8 -1,-1 -3.2,-3.2 -1,-1 1,-1 3.2,-3.2 1,-1 c 0.4,0.4 0.9,0.4 1.3,0 l 1,1 3.2,3.2 1,1 -1,1 -3.2,3.2 -1,1 -0.6,0.6 0.5,-0.8 C 28.8,75.4 28.3,75.5 28,75.8 Z m -7,-5.8 -1,-1 -3.2,-3.2 -1,-1 1,-1 3.2,-3.2 1,-1 c 0.4,0.4 0.9,0.4 1.3,0 l 1,1 3.2,3.2 1,1 -1,1 -3.2,3.2 -1,1 -0.6,0.6 0.5,-0.8 C 21.8,69.7 21.3,69.7 21,70 Z m 49,-5.7 -1,-1 -3.2,-3.2 -1,-1 1,-1 3.2,-3.2 1,-1 c 0.4,0.4 0.9,0.4 1.3,0 l 1,1 3.2,3.2 1,1 -1,1 -3.2,3.2 -1,1 -0.6,0.7 0.5,-0.8 C 70.8,64 70.3,64 70,64.3 Z m -7,-5.7 -1,-1 -3.2,-3.2 -1,-1 1,-1 3.2,-3.2 1,-1 c 0.4,0.4 0.9,0.4 1.3,0 l 1,1 3.2,3.2 1,1 -1,1 -4.1,4.1 -0.6,0.6 0.5,-0.8 c -0.5,0 -1,0 -1.3,0.3 z m -7,5.7 -4.1,-4.1 -1,-1 1,-1 3.2,-3.2 1,-1 c 0.4,0.4 0.9,0.4 1.3,0 l 1,1 3.2,3.2 1,1 -1,1 -3.2,3.2 -1,1 -0.7,0.6 0.5,-0.8 C 56.8,64 56.3,64 56,64.3 Z m -7,-5.7 -1,-1 -3.2,-3.2 -1,-1 1,-1 3.2,-3.2 1,-1 c 0.4,0.4 0.9,0.4 1.3,0 l 1,1 3.2,3.2 1,1 -1,1 -3.2,3.2 -1,1 -0.6,0.6 0.5,-0.8 C 49.8,58.3 49.3,58.3 49,58.6 Z m -7,5.7 -1,-1 -3.2,-3.2 -1,-1 1,-1 3.2,-3.2 1,-1 c 0.4,0.4 0.9,0.4 1.3,0 l 1,1 3.2,3.2 1,1 -1,1 -3.2,3.2 -1,1 -0.6,0.7 0.5,-0.8 C 42.8,64 42.3,64 42,64.3 Z m -7,-5.7 -1,-1 -3.2,-3.2 -1,-1 5.1,-5.1 c 0.4,0.4 0.9,0.4 1.3,0 l 5.1,5.1 -5.1,5.1 -0.6,0.6 0.5,-0.8 c -0.3,0 -0.8,0 -1.1,0.3 z m -7,5.7 -1,-1 -3.2,-3.2 -1,-1 1,-1 3.2,-3.2 1,-1 c 0.4,0.4 0.9,0.4 1.3,0 l 1,1 3.2,3.2 1,1 -1,1 -3.2,3.2 -1,1 -0.6,0.7 0.5,-0.8 C 28.8,64 28.3,64 28,64.3 Z m 35,-17.2 -1,-1 -3.1,-3.1 -1,-1 1,-1 3.2,-3.2 1,-1 c 0.4,0.4 0.9,0.4 1.3,0 l 1,1 3.2,3.2 1,1 -1,1 -3.2,3.2 -1,1 -0.6,0.6 0.5,-0.8 c -0.5,-0.2 -1,-0.2 -1.3,0.1 z m -4.7,-3.5 3.2,3.2 1,1 -1,1 -3.2,3.2 -1,1 -0.6,0.6 0.5,-0.8 c -0.3,-0.2 -0.8,-0.2 -1.1,0.1 l -1,-1 -3.2,-3.2 -1,-1 1,-1 3.2,-3.2 1,-1 c 0.4,0.4 0.9,0.4 1.3,0 z m -3.8,-0.6 -3.2,3.2 -1,1 -0.6,0.6 0.5,-0.8 c -0.3,-0.2 -0.8,-0.2 -1.1,0.1 l -1,-1 -3.2,-3.1 -1,-1 1,-1 3.2,-3.2 1,-1 c 0.4,0.4 0.9,0.4 1.3,0 l 1,1 3.2,3.2 1,1 z m -6.1,4.8 -1,1 -3.2,3.2 -1,1 -0.6,0.6 0.5,-0.8 C 42.8,52.6 42.3,52.6 42,52.9 l -5,-5.1 5.1,-5.1 c 0.4,0.4 0.9,0.4 1.3,0 z m -7.9,-4.8 -3.2,3.2 -1,1 -0.6,0.6 0.5,-0.8 c -0.3,-0.2 -0.8,-0.2 -1.1,0.1 l -1,-1 -3.2,-3.1 -1,-1 1,-1 3.2,-3.2 1,-1 c 0.4,0.4 0.9,0.4 1.3,0 l 1,1 3.2,3.2 1,1 z m -6.1,4.8 -4.1,4.1 -1,1 -0.6,0.6 0.5,-0.8 c -0.3,-0.2 -0.8,-0.2 -1.1,0.1 l -1,-1 -3.2,-3.2 -1,-1 1,-1 4.1,-4.1 c 0.4,0.4 0.9,0.4 1.3,0 z m 36.3,5.7 0.5,-0.8 c -0.3,-0.2 -0.8,-0.2 -1.1,0.1 l -4.1,-4.1 -1,-1 1,-1 3.2,-3.2 1,-1 c 0.4,0.4 0.9,0.4 1.3,0 l 1,1 3.2,3.2 1,1 -1,1 -3.2,3.2 -1,1 z m 0,-11.5 0.5,-0.8 C 70.9,41 70.4,41 70.1,41.3 l -1,-1 -3.2,-3.2 -1,-1 1,-1 3.2,-3.2 1,-1 c 0.4,0.4 0.9,0.4 1.3,0 l 1,1 3.2,3.2 1,1 -1,1 -3.2,3.2 -1,1 z m -2.2,-10.5 -3.2,3.2 -1,1 -0.6,0.6 0.5,-0.8 c -0.3,-0.2 -0.8,-0.2 -1.1,0.1 l -1,-1 -3.2,-3.2 -1,-1 1,-1 3.2,-3.2 1,-1 c 0.4,0.4 0.9,0.4 1.3,0 l 1,1 3.2,3.2 1,1 z m -10.2,0.7 3.2,3.2 1,1 -1,1 -3.2,3.2 -1,1 -0.6,0.4 0.5,-0.8 C 56.9,41 56.4,41 56.1,41.3 l -1,-1 -3.2,-3.2 -1,-1 1,-1 3.2,-3.2 1,-1 c 0.4,0.4 0.9,0.4 1.3,0 z m -3.8,-0.7 -3.2,3.2 -1,1 -0.6,0.6 0.5,-0.8 c -0.3,-0.2 -0.8,-0.2 -1.1,0.1 l -1,-1 -3.2,-3.2 -1,-1 1,-1 3.2,-3.2 1,-1 c 0.4,0.4 0.9,0.4 1.3,0 l 1,1 3.2,3.2 1,1 z m -10.2,0.7 3.2,3.2 1,1 -1,1 -3.2,3.2 -1,1 -0.6,0.4 0.5,-0.8 C 42.9,41 42.4,41 42.1,41.3 l -1,-1 -3.2,-3.2 -1,-1 1,-1 3.2,-3.2 1,-1 c 0.4,0.4 0.9,0.4 1.3,0 z m -3.8,-0.7 -3.2,3.2 -1,1 -0.6,0.6 0.5,-0.8 c -0.3,-0.2 -0.8,-0.2 -1.1,0.1 l -1,-1 -3.2,-3.2 -1,-1 1,-1 3.2,-3.2 1,-1 c 0.4,0.4 0.9,0.4 1.3,0 l 1,1 3.2,3.2 1,1 z m -10.2,0.7 3.2,3.2 1,1 -5.8,5.6 0.5,-0.8 C 28.9,41 28.4,41 28.1,41.3 l -1,-1 -3.2,-3.2 -1,-1 1,-1 3.2,-3.2 1,-1 c 0.4,0.4 0.9,0.4 1.3,0 z m -3.8,-0.7 -3.2,3.2 -1,1 -0.6,0.6 0.5,-0.8 c -0.3,-0.2 -0.8,-0.2 -1.1,0.1 l -1,-1 -3.2,-3.2 -1,-1 1,-1 3.2,-3.2 1,-1 c 0.4,0.4 0.9,0.4 1.3,0 l 1,1 3.2,3.2 1,1 z m -4.2,5.5 1,1 3.2,3.2 1,1 -1,1 -3.2,3.2 -1,1 -0.6,0.6 0.5,-0.8 C 21.9,47 21.4,47 21.1,47.3 l -1,-1 -3.2,-3.3 -1,-1 1,-1 3.2,-3.2 1,-1 c 0.3,0.5 0.9,0.5 1.2,0.2 z m 0,11.4 1,1 3.2,3.2 1,1 -1,1 -3.2,3.2 -1,1 -0.6,0.6 0.5,-0.8 c -0.3,-0.2 -0.8,-0.2 -1.1,0.1 l -1,-1 -3.2,-3.2 -1,-1 1,-1 3.2,-3.2 1,-1 c 0.3,0.5 0.9,0.5 1.2,0.1 z m 55.4,10.8 0.5,-0.8 c -0.3,-0.2 -0.8,-0.2 -1.1,0.1 l -1,-1 -3.2,-3.2 -1,-1 1,-1 3.2,-3.2 1,-1 c 0.4,0.4 0.9,0.4 1.3,0 l 1,1 3.2,3.2 1,1 -1,1 -3.2,3.2 -1,1 z m 0,-11.4 0.5,-0.8 c -0.3,-0.2 -0.8,-0.2 -1.1,0.1 l -1,-1 -3.2,-3.1 -1,-1 1,-1 3.2,-3.2 1,-1 c 0.4,0.4 0.9,0.4 1.3,0 l 1,1 3.2,3.2 1,1 -1,1 -3.2,3.2 -1,1 z m 0,-11.5 0.5,-0.8 c -0.3,-0.2 -0.8,-0.2 -1.1,0.1 l -1,-1 -3.2,-3.2 -1,-1 1,-1 3.2,-3.2 1,-1 c 0.4,0.4 0.9,0.4 1.3,0 l 1,1 3.2,3.2 1,1 -1,1 -3.2,3.2 -1,1 z m 0,-11.4 0.5,-0.8 c -0.3,-0.2 -0.8,-0.2 -1.1,0.1 l -1,-1 -3.2,-3.2 -1,-1 1,-1 3.2,-3.2 1,-1 c 0.4,0.4 0.9,0.4 1.3,0 l 1,1 3.2,3.2 1,1 -1,1 -3.2,3.2 -1,1 z m -5.4,-4.2 3.2,3.2 1,1 -1,1 -3.2,3.1 -1,1 -0.6,0.6 0.5,-0.8 c -0.3,-0.2 -0.8,-0.2 -1.1,0.1 l -1,-1 -3.2,-3.2 -1,-1 1,-1 3.2,-3.2 1,-1 c 0.4,0.4 0.9,0.4 1.3,0 z m -3.8,-0.6 -3.2,3.2 -1,1 -0.6,0.6 0.5,-0.8 c -0.3,-0.2 -0.8,-0.2 -1.1,0.1 l -1,-1 -3.2,-3.2 -1,-1 1,-1 3.2,-3.2 1,-1 c 0.4,0.4 0.9,0.4 1.3,0 l 1,1 3.2,3.2 1,1 z m -10.2,0.6 3.2,3.2 1,1 -1,1 -3.2,3.1 -1,1 -0.6,0.6 0.5,-0.8 c -0.3,-0.2 -0.8,-0.2 -1.1,0.1 l -1,-1 -3.2,-3.2 -1,-1 1,-1 3.2,-3.2 1,-1 c 0.4,0.4 0.9,0.4 1.3,0 z m -3.8,-0.6 -3.2,3.2 -1,1 -0.6,0.6 0.5,-0.8 c -0.3,-0.2 -0.8,-0.2 -1.1,0.1 l -1,-1 -3.2,-3.2 -1,-1 4.1,-4.1 1,-1 c 0.4,0.4 0.9,0.4 1.3,0 l 1,1 3.2,3.2 1,1 z m -10.2,0.6 3.2,3.2 1,1 -1,1 -3.2,3.1 -1,1 -0.6,0.6 0.5,-0.8 c -0.3,-0.2 -0.8,-0.2 -1.1,0.1 l -1,-1 -3.2,-3.2 -1,-1 5.1,-5.1 c 0.4,0.4 0.9,0.4 1.3,0 z m -3.8,-0.6 -3.2,3.2 -1,1 -0.6,0.6 0.5,-0.8 c -0.3,-0.2 -0.8,-0.2 -1.1,0.1 l -1,-1 -3.2,-3.2 -1,-1 1,-1 3.2,-3.2 1,-1 c 0.4,0.4 0.9,0.4 1.3,0 l 1,1 3.2,3.2 1,1 z m -10.2,0.6 3.2,3.2 1,1 -1,1 -3.2,3.1 -1,1 -0.6,0.6 0.5,-0.8 c -0.3,-0.2 -0.8,-0.2 -1.1,0.1 l -1,-1 -3.2,-3.2 -1,-1 1,-1 3.2,-3.2 1,-1 c 0.4,0.4 0.9,0.4 1.3,0 z m -3.8,-0.6 -3.2,3.2 -1,1 -0.6,0.6 0.5,-0.8 c -0.3,-0.2 -0.8,-0.2 -1.1,0.1 l -1,-1 -3.2,-3.2 -1,-1 5.1,-5 c 0.4,0.4 0.9,0.4 1.3,0 l 1,1 3.2,3.2 1,1 z m -10.2,0.6 3.2,3.2 1,1 -1,1 -3.2,3.1 -1,1 -0.6,0.6 0.5,-0.8 c -0.3,-0.2 -0.8,-0.2 -1.1,0.1 l -1,-1 -3.2,-3.2 -1,-1 1,-1 3.2,-3.2 1,-1 c 0.4,0.4 0.9,0.4 1.3,0 z m -1,10.5 1,1 3.2,3.2 1,1 -1,1 -3.2,3.2 -1,1 -0.6,0.4 0.5,-0.8 C 14.9,41 14.4,41 14.1,41.3 l -4.1,-4.1 -1,-1 1,-1 3.2,-3.2 1,-1 c 0.2,0.6 0.8,0.6 1.1,0.2 z m 0,11.5 1,1 3.2,3.2 1,1 -1,1 -3.2,3.2 -1,1 -0.6,0.6 0.5,-0.8 C 14.9,52.7 14.4,52.7 14.1,53 l -1,-1 -3.2,-3.2 -1,-1 1,-1 4.1,-4.1 c 0.4,0.3 1,0.3 1.3,0 z m 0,11.4 1,1 3.2,3.2 1,1 -1,1 -3.2,3.2 -1,1 -0.6,0.5 0.5,-0.8 C 14.8,64 14.3,64 14,64.3 l -1,-1 -3.2,-3.2 -1,-1 1,-1 3.2,-3.2 1,-1 c 0.4,0.6 1,0.6 1.3,0.2 z m 0,11.5 1,1 3.2,3.2 1,1 -1,1 -3.2,3.2 -1,1 -0.6,0.6 0.5,-0.8 c -0.3,-0.2 -0.8,-0.2 -1.1,0.1 l -1,-1 -3.2,-3.2 -1,-1 1,-1 3.2,-3.2 1,-1 c 0.3,0.4 0.9,0.4 1.2,0.1 z m 69.4,10.8 0.5,-0.8 c -0.3,-0.2 -0.8,-0.2 -1.1,0.1 l -1,-1 -3.2,-3.2 -1,-1 1,-1 4.1,-4.1 c 0.4,0.4 0.9,0.4 1.3,0 l 1,1 3.2,3.2 1,1 -1,1 -3.2,3.2 z m 0,-11.4 0.5,-0.8 C 84.8,64 84.3,64 84,64.3 l -1,-1 -3.2,-3.2 -1,-1 1,-1 3.2,-3.2 1,-1 c 0.4,0.4 0.9,0.4 1.3,0 l 1,1 3.2,3.2 1,1 -1,1 -3.2,3.2 -1,1 z m 0,-11.5 0.5,-0.8 c -0.3,-0.2 -0.8,-0.2 -1.1,0.1 l -1,-1 -3.2,-3.2 -1,-1 1,-1 3.2,-3.2 1,-1 c 0.4,0.4 0.9,0.4 1.3,0 l 1,1 3.2,3.2 1,1 -1,1 -3.2,3.2 -1,1 z m 0,-11.5 0.5,-0.8 C 84.9,41 84.4,41 84.1,41.3 l -1,-1 -3.2,-3.2 -1,-1 1,-1 3.2,-3.2 1,-1 c 0.4,0.4 0.9,0.4 1.3,0 l 1,1 3.2,3.2 1,1 -1,1 -3.2,3.2 -1,1 z m 0,-11.4 0.5,-0.8 c -0.3,-0.2 -0.8,-0.2 -1.1,0.1 l -1,-1 -3.2,-3.2 -1,-1 1,-1 3.2,-3.2 1,-1 c 0.4,0.4 0.9,0.4 1.3,0 l 1,1 3.2,3.2 1,1 -1,1 -3.3,3.3 -1,1 z m -2.2,-22 v 0 l -3.2,3.2 -1,1 -0.6,0.6 0.5,-0.8 c -0.3,-0.2 -0.8,-0.2 -1.1,0.1 l -1,-1 -3.2,-3.2 v 0 h 9.6 z m -12.7,0 h 1.8 l 0.7,0.7 3.2,3.2 1,1 -1,1 -3.2,3.2 -1,1 -0.6,0.6 0.5,-0.8 c -0.3,-0.2 -0.8,-0.2 -1.1,0.1 l -1,-1 -3.2,-3.2 -1,-1 1,-1 3.2,-3.2 z m -1.3,0 v 0 l -3.2,3.2 -1,1 -0.6,0.6 0.5,-0.8 c -0.3,-0.2 -0.8,-0.2 -1.1,0.1 l -1,-1 -3.2,-3.2 v 0 h 9.6 z m -12.7,0 h 1.8 l 0.7,0.7 3.2,3.2 1,1 -1,1 -3.2,3.2 -1,1 -0.6,0.6 0.5,-0.8 c -0.3,-0.2 -0.8,-0.2 -1.1,0.1 l -1,-1 -3.2,-3.2 -1,-1 1,-1 3.2,-3.2 z m -1.3,0 v 0 l -3.2,3.2 -1,1 -0.6,0.6 0.5,-0.8 c -0.3,-0.2 -0.8,-0.2 -1.1,0.1 l -1,-1 -3.2,-3.2 v 0 h 9.6 z m -12.7,0 h 1.8 l 0.7,0.7 3.2,3.2 1,1 -1,1 -3.2,3.2 -1,1 -0.6,0.6 0.5,-0.8 c -0.3,-0.2 -0.8,-0.2 -1.1,0.1 l -1,-1 -3.2,-3.2 -1,-1 1,-1 3.2,-3.2 z m -1.3,0 v 0 l -3.2,3.2 -1,1 -0.6,0.6 0.5,-0.8 c -0.3,-0.2 -0.8,-0.2 -1.1,0.1 l -1,-1 -3.2,-3.2 v 0 h 9.6 z m -12.7,0 h 1.8 l 0.7,0.7 3.2,3.2 1,1 -1,1 -3.2,3.2 -1,1 -0.6,0.6 0.5,-0.8 c -0.3,-0.2 -0.8,-0.2 -1.1,0.1 l -1,-1 -3.2,-3.2 -1,-1 1,-1 3.2,-3.2 z m -1.3,0 v 0 l -3.2,3.2 -1,1 -0.6,0.6 0.5,-0.8 c -0.3,-0.2 -0.8,-0.2 -1.1,0.1 l -1,-1 -3.2,-3.2 v 0 h 9.6 z M 14,8.6 h 1.6 l 0.7,0.7 3.2,3.2 1,1 -1,1 -3.2,3.2 -1,1 -0.6,0.6 0.5,-0.8 c -0.3,-0.2 -0.8,-0.2 -1.1,0.1 l -1,-1 -3.2,-3.2 -1,-1 1,-1 3.2,-3.2 0.7,-0.7 c 0,0.1 0.1,0.1 0.2,0.1 z M 12.2,8.9 9.3,11.8 9,12.1 c 0.5,-1.4 1.7,-2.6 3.2,-3.2 z m -3.6,5.4 0.7,0.7 3.2,3.2 1,1 -1,1 -3.2,3.2 -0.7,0.7 z m 0,11.5 0.7,0.7 3.2,3.2 1,1 -1,1 -3.2,3.2 -0.7,0.7 z m 0,11.4 0.7,0.7 3.2,3.2 1,1 -1,1 -3.2,3.2 -0.7,0.7 z m 0,11.5 0.7,0.7 3.2,3.2 1,1 -1,1 -3.2,3.2 -0.7,0.7 z m 0,11.4 0.7,0.7 3.2,3.2 1,1 -1,1 -3.2,3.2 -0.7,0.7 z m 0,11.5 0.7,0.7 3.2,3.2 1,1 -1,1 -3.2,3.2 -0.7,0.7 z m 0,14.4 v -2.9 l 0.7,0.7 3.2,3.2 1,1 -1,1 -1.6,1.6 C 9.5,89.4 8.6,87.8 8.6,86 Z m 5.4,5.4 c -0.8,0 -1.6,-0.2 -2.3,-0.5 l 1.4,-1.4 1,-1 c 0.4,0.4 0.9,0.4 1.3,0 l 1,1 1.9,1.9 z m 5.5,0 -2.6,-2.6 -1,-1 1,-1 3.2,-3.2 1,-1 c 0.4,0.4 0.9,0.4 1.3,0 l 1,1 3.2,3.2 1,1 -1,1 -2.6,2.6 z m 5.6,0 1.9,-1.9 1,-1 c 0.4,0.4 0.9,0.4 1.3,0 l 1,1 1.9,1.9 z m 8.4,0 -2.6,-2.6 -1,-1 1,-1 3.2,-3.2 1,-1 c 0.4,0.4 0.9,0.4 1.3,0 l 1,1 3.2,3.2 1,1 -1,1 -2.6,2.6 z m 5.6,0 1.9,-1.9 1,-1 c 0.4,0.4 0.9,0.4 1.3,0 l 1,1 1.9,1.9 z m 8.4,0 -2.6,-2.6 -1,-1 1,-1 3.2,-3.2 1,-1 c 0.4,0.4 0.9,0.4 1.3,0 l 1,1 3.2,3.2 1,1 -1,1 -2.6,2.6 z m 5.6,0 1.9,-1.9 1,-1 c 0.4,0.4 0.9,0.4 1.3,0 l 1,1 1.9,1.9 z m 8.4,0 -3.5,-3.5 1,-1 3.2,-3.2 1,-1 c 0.4,0.4 0.9,0.4 1.3,0 l 1,1 3.2,3.2 1,1 -1,1 -2.6,2.6 h -4.6 z m 5.6,0 1.9,-1.9 1,-1 c 0.4,0.4 0.9,0.4 1.3,0 l 1,1 1.9,1.9 z m 8.4,0 -2.6,-2.6 -1,-1 1,-1 4.1,-4.1 c 0.4,0.4 0.9,0.4 1.3,0 l 1,1 3.2,3.2 1,1 -1,1 -2.6,2.6 h -4.4 z m 10.5,0 h -4.9 l 1.9,-1.9 1,-1 c 0.4,0.4 0.9,0.4 1.3,0 l 1,1 1.6,1.6 c -0.6,0.2 -1.2,0.3 -1.9,0.3 z M 91.4,86 c 0,2 -1.1,3.7 -2.7,4.6 l -1.8,-1.8 -1,-1 1,-1 3.2,-3.2 1,-1 c 0.1,0.1 0.2,0.2 0.4,0.2 V 86 Z m 0,-4.7 c -0.1,0 -0.3,0.1 -0.4,0.2 l -1,-1 -3.2,-3.2 -1,-1 1,-1 3.2,-3.2 1,-1 c 0.1,0.1 0.2,0.2 0.4,0.2 z m 0,-11.5 c -0.1,0 -0.3,0.1 -0.4,0.2 l -1,-1 -3.2,-3.2 -1,-1 1,-1 3.2,-3.2 1,-1 c 0.1,0.1 0.2,0.2 0.4,0.2 z m 0,-11.4 c -0.1,0 -0.3,0.1 -0.4,0.2 l -1,-1 -3.2,-3.2 -1,-1 1,-1 3.2,-3.2 1,-1 c 0.1,0.1 0.2,0.2 0.4,0.2 z m 0,-11.5 c -0.1,0 -0.3,0.1 -0.4,0.2 l -1,-1 -3.1,-3.1 -1,-1 1,-1 3.2,-3.2 1,-1 c 0.1,0.1 0.2,0.2 0.4,0.2 v 9.9 z m 0,-11.4 c -0.1,0 -0.3,0.1 -0.4,0.2 l -1,-1 -3.2,-3.2 -1,-1 1,-1 3.2,-3.2 1,-1 c 0.1,0.1 0.2,0.2 0.4,0.2 z m 0,-11.5 c -0.1,0 -0.3,0.1 -0.4,0.2 l -1,-1 -3.2,-3.2 -1,-1 1,-1 3.2,-3.2 1,-1 c 0.1,0.1 0.2,0.2 0.4,0.2 z" />
    </g>
    <g
       style="fill:#ffffff"
       id="g1560"
       transform="matrix(0.73502985,0,0,0.62076277,-109.55982,136.83427)">
      <path
         style="fill:#ffffff"
         id="path1549"
         d="m 82.605,43.139 c -0.38,-0.76 -1.646,-2.786 -1.646,-2.786 l -2.532,-3.292 c 0,0 9.371,9.372 2.28,-0.888 C 80.563,35.969 80.422,35.77 80.276,35.576 76.317,30.27 71.589,29.553 68.205,29.945 l 0.343,-0.105 -0.633,-1.772 2.532,0.886 1.646,0.38 v -1.266 c 0,0 -0.887,-0.887 0.127,-0.507 1.013,0.38 2.026,0.633 2.406,0.887 0.379,0.252 2.533,0.252 2.533,0.252 v -1.52 c 0,0 -0.634,-0.507 -1.395,-1.013 -0.76,-0.507 -1.772,-1.014 -1.772,-1.014 l 5.827,2.154 2.532,0.126 -3.42,-2.153 4.687,-0.127 -5.699,-1.52 -7.473,-0.506 c 0,0 -2.204,0.96 -4.575,2.415 l 0.269,-0.895 2.28,-1.394 v -2.659 l 1.267,-2.027 0.886,-1.646 0.127,-3.547 -0.507,-2.279 -2.532,2.659 -2.66,3.546 c 0,0 -1.14,1.647 -1.14,2.027 0,0.38 -1.266,3.293 -1.393,3.926 -0.022,0.11 -0.068,0.375 -0.126,0.725 v -0.091 l 0.506,-5.446 -1.521,-2.659 -0.76,1.772 -1.14,-2.533 c 0,0 -1.268,-1.267 -1.9,-1.774 -0.632,-0.507 -0.632,-2.279 -1.013,-2.279 -0.38,0 -3.8,-2.786 -3.8,-2.786 0,0 -1.772,5.065 0.507,5.319 0.504,0.057 0.507,2.407 0.887,3.041 0.38,0.632 1.394,1.519 1.394,2.026 0,0.507 0,2.407 0,2.407 0,0 1.14,1.14 1.394,1.52 0.086,0.129 0.31,0.396 0.562,0.687 -2.561,-2.355 -6.16,-4.231 -11.074,-3.98 l 3.293,1.52 -0.633,0.634 c 0,0 -1.14,1.013 -0.38,1.393 0.76,0.379 2.153,0.379 2.786,0.759 0.633,0.38 1.393,1.013 1.013,1.773 -0.38,0.76 -2.406,0.38 -2.786,1.267 -0.118,0.277 -0.118,0.563 -0.061,0.83 -1.821,0.107 -3.658,0.532 -5.385,1.449 0,0 -3.419,1.014 -5.067,3.801 0,0 -1.52,2.913 3.675,0.253 l 0.251,2.153 h 1.648 l 1.52,-1.266 0.253,-1.394 c 0,0 0.508,-1.773 0.508,-1.393 0,0.38 0.886,1.647 0.886,2.027 0,0.38 0,1.519 0,1.519 l 1.646,-0.379 -2.532,4.052 -0.635,1.9 -0.126,3.292 c 0,0 2.025,-0.254 2.152,-0.635 0.127,-0.379 0.254,-2.152 0.254,-2.152 l 1.646,-1.139 0.521,1.039 c -1.337,1.395 -2.261,3.11 -2.006,6.058 -0.867,-0.305 -2.875,-0.997 -3.295,-1.021 -0.542,-0.023 -2.065,0.042 -2.065,0.042 l -2.623,0.375 c 0,0 8.142,-2.263 0.225,-1.542 -0.159,0.015 -0.313,0.03 -0.466,0.053 -4.188,0.533 -6.068,2.935 -6.908,4.936 l 0.049,-0.225 -1.184,-0.203 1.286,-1.129 0.726,-0.796 -0.702,-0.394 c 0,0 -0.77,0.213 -0.243,-0.229 0.531,-0.443 0.988,-0.927 1.249,-1.059 0.26,-0.131 0.932,-1.325 0.932,-1.325 l -0.843,-0.477 c 0,0 -0.478,0.191 -0.996,0.454 -0.521,0.262 -1.119,0.668 -1.119,0.668 l 3.021,-2.56 0.862,-1.366 -2.268,1.224 1.399,-2.642 -2.63,2.687 -2.622,3.99 c 0,0 -0.159,1.524 -0.094,3.296 l -0.412,-0.428 -0.061,-1.704 -1.478,-0.833 -0.728,-1.339 -0.635,-1.007 -1.929,-1.182 -1.426,-0.432 0.684,2.237 1.137,2.59 c 0,0 0.556,1.148 0.766,1.269 0.211,0.12 1.429,1.734 1.741,2 0.057,0.049 0.188,0.157 0.363,0.301 l -0.048,-0.031 -2.868,-1.99 -1.951,0.012 0.747,0.979 -1.762,-0.162 c 0,0 -1.101,0.304 -1.58,0.496 -0.48,0.195 -1.464,-0.361 -1.584,-0.15 -0.12,0.211 -2.737,1.235 -2.737,1.235 0,0 2.261,2.574 3.112,1.388 0.188,-0.263 1.493,0.474 1.967,0.458 0.469,-0.01 1.279,-0.296 1.562,-0.139 0.281,0.158 1.335,0.755 1.335,0.755 0,0 0.988,-0.273 1.28,-0.297 0.099,-0.008 0.314,-0.049 0.561,-0.097 -2.113,0.687 -4.283,2.094 -5.684,4.898 l 1.873,-1.349 0.153,0.548 c 0,0 0.207,0.953 0.657,0.648 0.446,-0.304 0.887,-1.076 1.296,-1.309 0.408,-0.232 0.998,-0.459 1.301,-0.008 0.302,0.451 -0.544,1.456 -0.171,1.942 0.115,0.154 0.277,0.245 0.442,0.296 -0.515,1.045 -0.853,2.196 -0.883,3.443 0,0 -0.511,2.218 0.518,4.005 0,0 1.141,1.752 1.296,-1.964 l 1.271,0.537 0.519,-0.916 -0.225,-1.237 -0.694,-0.579 c 0,0 -0.826,-0.837 -0.616,-0.716 0.21,0.114 1.191,0.021 1.401,0.141 0.212,0.121 0.844,0.479 0.844,0.479 l 0.308,-1.033 1.453,2.674 0.856,0.948 1.791,1.104 c 0,0 0.493,-1.205 0.322,-1.395 -0.17,-0.19 -1.117,-0.815 -1.117,-0.815 l -0.116,-1.273 0.899,0.051 -0.186,-1.313 -0.657,-1.301 -0.053,-0.71 c 0.792,2.591 2.592,5.355 6.544,6.785 l -0.116,-1.271 -0.469,-1.467 -1.336,-0.759 0.534,-1.271 -1.525,-0.582 c 0,0 0.498,-0.554 0.708,-0.436 0.211,0.12 -0.767,-1.27 -0.767,-1.27 L 34.921,55 c 4.245,3.58 14.688,13.405 18.681,26.386 0,0 1.487,5.689 1.468,6.382 -0.255,-0.363 -3.111,-8.388 -6.008,-11.519 l 4.713,11.622 -5.4,-4.81 4.088,6.429 -10.525,-5.99 10.271,7.512 -6.459,-1.387 c 0,0 6.063,3.055 10.625,2.859 h 6.438 c 0,0 6.938,-1.859 8.063,-4.359 l -7.688,2.188 4.625,-7.5 -6.23,6.174 1.73,-10.924 -3.124,9.655 L 60.875,73 59.15,83.285 c -0.438,-16 -0.015,-26.922 0.681,-34.324 1.221,-0.403 2.131,-1.863 2.131,-3.614 0,-0.081 -0.015,-0.157 -0.018,-0.237 0.626,-0.39 1.063,-1.231 1.063,-2.214 0,-1.353 -0.822,-2.449 -1.837,-2.449 -0.069,0 -0.134,0.026 -0.201,0.037 0.949,-5.02 1.879,-6.335 1.879,-6.335 l 0.127,-0.507 -0.76,3.42 1.646,-1.647 -1.013,3.167 v 1.013 h 1.14 0.633 c 0.127,0.632 0.127,2.025 0.127,2.025 l -0.38,1.267 -0.127,0.634 c 0,0 0,0.886 0.38,1.137 0.38,0.255 1.394,0 1.394,0 l 0.507,-1.644 c 0,0 0.634,-1.141 0.634,0.632 0,1.774 -0.254,1.774 0,3.294 0.253,1.52 1.013,1.52 1.14,2.026 0.126,0.507 0.633,0.507 0.633,0.507 l 0.506,-1.269 0.254,-2.15 v -1.52 l -0.127,-1.268 c 0.116,0.03 0.39,0.097 1.013,0.255 1.521,0.379 0.507,-0.507 0.507,-0.507 L 70.449,40.86 69.056,39.34 c 0,0 1.013,0.127 1.393,0.381 0.38,0.254 2.28,0.253 2.28,0.253 l -1.141,-1.52 c 0,0 -0.127,-0.634 -0.76,-1.013 -0.634,-0.379 -1.394,-1.647 -1.394,-1.647 l -0.759,-0.886 -1.14,-1.013 -0.848,-0.967 c 2.261,1.427 7.939,8.06 7.939,8.06 l 1.52,2.785 c 0,0 0.38,-2.659 0.507,-3.545 0.127,-0.887 1.14,2.025 1.394,2.66 0.253,0.634 1.773,3.67 1.773,3.67 v -1.899 l 1.392,2.282 c 0,0 0.761,2.026 1.141,2.533 0.38,0.507 1.52,-0.383 1.52,-0.383 0,0 -0.888,-5.192 -1.268,-5.952 z M 58.072,41.915 c -0.11,0.064 -0.218,0.137 -0.321,0.218 -0.796,-0.204 -1.775,0.323 -2.318,1.306 -0.614,1.115 -0.436,2.393 0.401,2.854 0.205,0.113 0.432,0.165 0.664,0.165 0.151,0.64 0.432,1.2 0.793,1.642 -0.971,9.314 -1.58,21.722 -1.924,30.739 0,0 -8.177,-16.45 -17.746,-23.885 l 0.104,-0.185 0.2,-0.353 c 0.39,0.131 1.162,0.566 1.162,0.566 l 0.585,0.607 0.313,0.266 c 0,0 0.491,0.278 0.753,0.147 0.257,-0.131 0.436,-0.772 0.436,-0.772 l -0.757,-0.796 c 0,0 -0.435,-0.711 0.55,-0.155 0.985,0.556 0.904,0.699 1.829,1.033 0.92,0.338 1.16,-0.087 1.481,0.004 0.321,0.085 0.48,-0.192 0.48,-0.192 L 44.213,54.445 43.098,53.628 42.251,53.149 41.51,52.824 c 0.055,-0.053 0.177,-0.185 0.459,-0.481 0.688,-0.727 -0.122,-0.442 -0.122,-0.442 l -1.394,-0.321 -1.281,0.296 c 0,0 0.388,-0.521 0.649,-0.65 0.259,-0.135 0.853,-1.185 0.853,-1.185 l -1.199,0.154 c 0,0 -0.391,-0.128 -0.802,0.104 -0.411,0.233 -1.35,0.255 -1.35,0.255 l -0.728,0.146 -0.922,0.315 -0.804,0.165 c 1.504,-0.807 6.964,-1.881 6.964,-1.881 l 2.021,0.03 c 0,0 -1.355,-1.043 -1.807,-1.393 -0.454,-0.349 1.479,0.004 1.912,0.06 0.432,0.057 2.592,0.166 2.592,0.166 l -1.052,-0.593 1.703,-0.06 c 0,0 1.362,0.214 1.764,0.161 l 3.243,2.309 1.647,-1.776 v -2.406 l -0.396,-1.62 c 0,0 3.081,-3.854 3.081,-3.474 0,0.381 1.366,0.915 1.366,0.915 l 0.276,-0.434 c -0.037,0.232 -0.074,0.49 -0.111,0.731 z" />
    </g>
    <text
       xml:space="preserve"
       style="font-style:normal;font-variant:normal;font-weight:bold;font-stretch:condensed;font-size:5.64444447px;line-height:1.25;font-family:'IBM Plex Sans Condensed';-inkscape-font-specification:'IBM Plex Sans Condensed, Bold Condensed';font-variant-ligatures:normal;font-variant-caps:normal;font-variant-numeric:normal;font-feature-settings:normal;text-align:start;letter-spacing:0px;word-spacing:0px;writing-mode:lr-tb;text-anchor:start;fill:#ffffff;fill-opacity:1;stroke:none;stroke-width:0.26458332;"
       x="-86.735909"
       y="201.81383"
       id="text1564"><tspan
         id="tspan1562"
         x="-86.735909"
         y="201.81383"
         style="stroke-width:0.26458332;fill:#ffffff;">22nd &amp; Pacific</tspan></text>
    <text
       xml:space="preserve"
       style="font-style:normal;font-variant:normal;font-weight:bold;font-stretch:condensed;font-size:63.50021362px;line-height:1.25;font-family:'IBM Plex Sans Condensed';-inkscape-font-specification:'IBM Plex Sans Condensed, Bold Condensed';font-variant-ligatures:normal;font-variant-caps:normal;font-variant-numeric:normal;font-feature-settings:normal;text-align:start;letter-spacing:0px;word-spacing:0px;writing-mode:lr-tb;text-anchor:start;fill:#ffffff;fill-opacity:1;stroke:none;stroke-width:2.97657251;"
       x="-133.40822"
       y="196.96562"
       id="text1580"><tspan
         id="tspan1578"
         x="-133.40822"
         y="196.96562"
         style="stroke-width:2.97657251;fill:#ffffff;">J</tspan></text>
  </g>
</svg>
